<svg xmlns="http://www.w3.org/2000/svg" width="32" height="33" viewBox="0 0 32 33">
  <metadata><?xpacket begin="﻿" id="W5M0MpCehiHzreSzNTczkc9d"?>
<x:xmpmeta xmlns:x="adobe:ns:meta/" x:xmptk="Adobe XMP Core 5.6-c142 79.160924, 2017/07/13-01:06:39        ">
   <rdf:RDF xmlns:rdf="http://www.w3.org/1999/02/22-rdf-syntax-ns#">
      <rdf:Description rdf:about=""/>
   </rdf:RDF>
</x:xmpmeta>
                                                                                                    
                                                                                                    
                                                                                                    
                                                                                                    
                                                                                                    
                                                                                                    
                                                                                                    
                                                                                                    
                                                                                                    
                                                                                                    
                                                                                                    
                                                                                                    
                                                                                                    
                                                                                                    
                                                                                                    
                                                                                                    
                                                                                                    
                                                                                                    
                                                                                                    
                                                                                                    
                           
<?xpacket end="w"?></metadata>
<defs>
    <style>
      .cls-1 {
        fill: #92dd02;
        fill-rule: evenodd;
      }
    </style>
  </defs>
  <path id="Arrow" class="cls-1" d="M947.409,863.352L933.65,849.767a2.191,2.191,0,0,1,0-3.129,2.26,2.26,0,0,1,3.168,0l12.175,12.021,12.174-12.021a2.261,2.261,0,0,1,3.169,0,2.193,2.193,0,0,1,0,3.129l-13.759,13.586A2.261,2.261,0,0,1,947.409,863.352Zm0,15L933.65,864.767a2.191,2.191,0,0,1,0-3.129,2.26,2.26,0,0,1,3.168,0l12.175,12.021,12.174-12.021a2.261,2.261,0,0,1,3.169,0,2.193,2.193,0,0,1,0,3.129l-13.759,13.586A2.261,2.261,0,0,1,947.409,878.352Z" transform="translate(-933 -846)"/>
</svg>
